<svg xmlns="http://www.w3.org/2000/svg" viewBox="0 0 512 512" width="512" height="512">
  <defs>
    <linearGradient id="bg" x1="0" y1="0" x2="512" y2="512" gradientUnits="userSpaceOnUse">
      <stop offset="0%" stop-color="#9d8cff"/>
      <stop offset="50%" stop-color="#5a46e0"/>
      <stop offset="100%" stop-color="#1d1546"/>
    </linearGradient>
    <linearGradient id="hi" x1="0" y1="0" x2="0" y2="512" gradientUnits="userSpaceOnUse">
      <stop offset="0%" stop-color="#ffffff" stop-opacity="0.34"/>
      <stop offset="40%" stop-color="#ffffff" stop-opacity="0.02"/>
      <stop offset="100%" stop-color="#000000" stop-opacity="0.26"/>
    </linearGradient>
    <linearGradient id="stroke" x1="0" y1="0" x2="512" y2="512" gradientUnits="userSpaceOnUse">
      <stop offset="0%" stop-color="#ffffff"/>
      <stop offset="60%" stop-color="#ffffff" stop-opacity="0.96"/>
      <stop offset="100%" stop-color="#c8f0ff"/>
    </linearGradient>
    <radialGradient id="spark" cx="0.85" cy="0.85" r="0.5">
      <stop offset="0%" stop-color="#60deff"/>
      <stop offset="100%" stop-color="#60deff" stop-opacity="0"/>
    </radialGradient>
  </defs>
  <rect width="512" height="512" rx="120" fill="url(#bg)"/>
  <rect width="512" height="512" rx="120" fill="url(#hi)"/>
  <rect x="280" y="280" width="232" height="232" rx="120" fill="url(#spark)" opacity="0.7"/>
  <g transform="translate(80 80) scale(5.5)">
    <path d="M44 18c-3.6-3-8-4.3-12.8-4.1-6.6.3-11.4 3.8-11.4 9 0 4.3 3 6.6 10 8.2l3.6.8c5.5 1.3 7 2.2 7 4.1 0 2.2-2.6 3.7-6.9 3.7-4 0-7.6-1.2-11-3.8"
      stroke="url(#stroke)" stroke-width="4.2" stroke-linecap="round" stroke-linejoin="round" fill="none"/>
    <path d="M26 28h22M26 40V20h22" stroke="url(#stroke)" stroke-width="4.2" stroke-linecap="round" stroke-linejoin="round" opacity="0.18" fill="none"/>
    <circle cx="51" cy="50" r="2.4" fill="#60deff"/>
  </g>
</svg>
